<svg width="1025" height="144" viewBox="0 0 1025 144" fill="none" xmlns="http://www.w3.org/2000/svg">
<mask id="path-1-inside-1_13213_641" fill="white">
<path d="M0.399902 0H1024.4V144H0.399902V0Z"/>
</mask>
<path d="M0.399902 0H1024.4V144H0.399902V0Z" fill="#FDFEFF"/>
<path d="M1024.4 141H0.399902V147H1024.4V141Z" fill="#8629FF" mask="url(#path-1-inside-1_13213_641)"/>
<path d="M12.559 87.4261C10.4283 87.4261 8.58172 86.9574 7.01922 86.0199C5.45672 85.0824 4.2446 83.7708 3.38286 82.0852C2.53058 80.3996 2.10445 78.4299 2.10445 76.1761C2.10445 73.9223 2.53058 71.9479 3.38286 70.2528C4.2446 68.5578 5.45672 67.2415 7.01922 66.304C8.58172 65.3665 10.4283 64.8977 12.559 64.8977C14.6897 64.8977 16.5363 65.3665 18.0988 66.304C19.6613 67.2415 20.8687 68.5578 21.7209 70.2528C22.5827 71.9479 23.0135 73.9223 23.0135 76.1761C23.0135 78.4299 22.5827 80.3996 21.7209 82.0852C20.8687 83.7708 19.6613 85.0824 18.0988 86.0199C16.5363 86.9574 14.6897 87.4261 12.559 87.4261ZM12.5874 83.3068C13.7427 83.3068 14.7086 82.9896 15.4851 82.3551C16.2616 81.7112 16.8393 80.8494 17.2181 79.7699C17.6063 78.6903 17.8005 77.4877 17.8005 76.1619C17.8005 74.8267 17.6063 73.6193 17.2181 72.5398C16.8393 71.4508 16.2616 70.5843 15.4851 69.9403C14.7086 69.2964 13.7427 68.9744 12.5874 68.9744C11.4037 68.9744 10.4188 69.2964 9.63286 69.9403C8.85634 70.5843 8.27396 71.4508 7.8857 72.5398C7.50691 73.6193 7.31752 74.8267 7.31752 76.1619C7.31752 77.4877 7.50691 78.6903 7.8857 79.7699C8.27396 80.8494 8.85634 81.7112 9.63286 82.3551C10.4188 82.9896 11.4037 83.3068 12.5874 83.3068ZM110.386 87V65.1818H115.3V68.8892H115.556C116.011 67.6392 116.764 66.6638 117.815 65.9631C118.866 65.2528 120.121 64.8977 121.579 64.8977C123.056 64.8977 124.301 65.2576 125.315 65.9773C126.337 66.6875 127.057 67.6581 127.474 68.8892H127.701C128.184 67.6771 128.998 66.7112 130.144 65.9915C131.3 65.2623 132.668 64.8977 134.249 64.8977C136.257 64.8977 137.895 65.5322 139.164 66.8011C140.433 68.0701 141.068 69.9214 141.068 72.3551V87H135.911V73.1506C135.911 71.7964 135.551 70.8068 134.832 70.1818C134.112 69.5473 133.231 69.2301 132.19 69.2301C130.949 69.2301 129.979 69.6184 129.278 70.3949C128.586 71.1619 128.241 72.161 128.241 73.392V87H123.198V72.9375C123.198 71.8106 122.857 70.911 122.175 70.2386C121.503 69.5663 120.622 69.2301 119.533 69.2301C118.795 69.2301 118.122 69.4195 117.516 69.7983C116.91 70.1676 116.427 70.6932 116.068 71.375C115.708 72.0473 115.528 72.8333 115.528 73.733V87H110.386Z" fill="#6F00FF"/>
<path d="M27.3779 95.1818V65.1818H32.4347V68.7898H32.733C32.9982 68.2595 33.3722 67.696 33.8552 67.0994C34.3381 66.4934 34.9915 65.9773 35.8154 65.5511C36.6392 65.1155 37.6904 64.8977 38.9688 64.8977C40.6544 64.8977 42.1743 65.3286 43.5285 66.1903C44.8921 67.0426 45.9716 68.3068 46.7671 69.983C47.572 71.6496 47.9745 73.6951 47.9745 76.1193C47.9745 78.5152 47.5815 80.5511 46.7955 82.2273C46.0095 83.9034 44.9394 85.1818 43.5853 86.0625C42.2311 86.9432 40.697 87.3835 38.983 87.3835C37.733 87.3835 36.6961 87.1752 35.8722 86.7585C35.0483 86.3419 34.3855 85.84 33.8836 85.2528C33.3911 84.6562 33.0076 84.0928 32.733 83.5625H32.5199V95.1818H27.3779ZM32.4205 76.0909C32.4205 77.5019 32.6194 78.7377 33.0171 79.7983C33.4243 80.8589 34.0067 81.6875 34.7642 82.2841C35.5313 82.8712 36.4593 83.1648 37.5483 83.1648C38.6847 83.1648 39.6364 82.8617 40.4035 82.2557C41.1705 81.6402 41.7482 80.8021 42.1364 79.7415C42.5341 78.6714 42.733 77.4545 42.733 76.0909C42.733 74.7367 42.5389 73.5341 42.1506 72.483C41.7624 71.4318 41.1847 70.608 40.4177 70.0114C39.6506 69.4148 38.6942 69.1165 37.5483 69.1165C36.4499 69.1165 35.5171 69.4053 34.75 69.983C33.983 70.5606 33.4006 71.3703 33.0029 72.4119C32.6146 73.4536 32.4205 74.6799 32.4205 76.0909ZM62.037 87.4261C59.8495 87.4261 57.9603 86.9716 56.3694 86.0625C54.7879 85.1439 53.5711 83.8466 52.7188 82.1705C51.8665 80.4848 51.4404 78.5009 51.4404 76.2188C51.4404 73.9744 51.8665 72.0047 52.7188 70.3097C53.5805 68.6051 54.7832 67.2794 56.3267 66.3324C57.8703 65.3759 59.6838 64.8977 61.7671 64.8977C63.1118 64.8977 64.3807 65.1155 65.5739 65.5511C66.7766 65.9773 67.8372 66.6402 68.7557 67.5398C69.6838 68.4394 70.4129 69.5852 70.9432 70.9773C71.4735 72.3598 71.7387 74.0076 71.7387 75.9205V77.4972H53.8552V74.0312H66.8097C66.8002 73.0464 66.5872 72.1705 66.1705 71.4034C65.7538 70.6269 65.1714 70.0161 64.4233 69.571C63.6847 69.1259 62.823 68.9034 61.8381 68.9034C60.787 68.9034 59.8637 69.1591 59.0682 69.6705C58.2728 70.1723 57.6525 70.8352 57.2074 71.6591C56.7718 72.4735 56.5493 73.3684 56.5398 74.3438V77.3693C56.5398 78.6383 56.7718 79.7273 57.2358 80.6364C57.6999 81.536 58.3485 82.2273 59.1819 82.7102C60.0152 83.1837 60.9906 83.4205 62.108 83.4205C62.8561 83.4205 63.5332 83.3163 64.1392 83.108C64.7453 82.8902 65.2709 82.5729 65.716 82.1562C66.161 81.7396 66.4972 81.2235 66.7245 80.608L71.5256 81.1477C71.2226 82.4167 70.6449 83.5246 69.7927 84.4716C68.9499 85.4091 67.8703 86.1383 66.554 86.6591C65.2377 87.1705 63.7321 87.4261 62.037 87.4261ZM81.2309 74.2159V87H76.0888V65.1818H81.0036V68.8892H81.2593C81.7612 67.6676 82.5614 66.697 83.6598 65.9773C84.7678 65.2576 86.1362 64.8977 87.765 64.8977C89.2706 64.8977 90.5822 65.2197 91.6996 65.8636C92.8265 66.5076 93.6977 67.4403 94.3133 68.6619C94.9383 69.8835 95.246 71.3655 95.2365 73.108V87H90.0945V73.9034C90.0945 72.4451 89.7157 71.304 88.9581 70.4801C88.21 69.6562 87.1731 69.2443 85.8473 69.2443C84.9477 69.2443 84.1475 69.4432 83.4468 69.8409C82.7555 70.2292 82.211 70.7926 81.8133 71.5312C81.425 72.2699 81.2309 73.1648 81.2309 74.2159ZM160.19 77.8239V65.1818H165.332V87H160.347V83.1222H160.119C159.627 84.3437 158.817 85.3428 157.69 86.1193C156.573 86.8958 155.195 87.2841 153.557 87.2841C152.127 87.2841 150.863 86.9669 149.764 86.3324C148.675 85.6884 147.823 84.7557 147.207 83.5341C146.592 82.303 146.284 80.8163 146.284 79.0739V65.1818H151.426V78.2784C151.426 79.661 151.805 80.7595 152.563 81.5739C153.32 82.3883 154.314 82.7955 155.545 82.7955C156.303 82.7955 157.037 82.6108 157.747 82.2415C158.457 81.8722 159.04 81.3229 159.494 80.5938C159.958 79.8551 160.19 78.9318 160.19 77.8239ZM187.864 70.9489L183.177 71.4602C183.044 70.9867 182.812 70.5417 182.481 70.125C182.159 69.7083 181.723 69.3722 181.174 69.1165C180.625 68.8608 179.952 68.733 179.157 68.733C178.087 68.733 177.187 68.965 176.458 69.429C175.738 69.893 175.383 70.4943 175.393 71.233C175.383 71.8674 175.615 72.3835 176.089 72.7812C176.572 73.179 177.367 73.5057 178.475 73.7614L182.197 74.5568C184.261 75.0019 185.795 75.7074 186.799 76.6733C187.812 77.6392 188.324 78.9034 188.333 80.4659C188.324 81.839 187.921 83.0511 187.126 84.1023C186.34 85.1439 185.246 85.9583 183.845 86.5455C182.443 87.1326 180.833 87.4261 179.015 87.4261C176.345 87.4261 174.195 86.8674 172.566 85.75C170.937 84.6231 169.967 83.0559 169.654 81.0483L174.668 80.5653C174.896 81.5502 175.379 82.2936 176.117 82.7955C176.856 83.2973 177.817 83.5483 179.001 83.5483C180.222 83.5483 181.202 83.2973 181.941 82.7955C182.689 82.2936 183.063 81.6733 183.063 80.9347C183.063 80.3097 182.822 79.7936 182.339 79.3864C181.865 78.9792 181.127 78.6667 180.123 78.4489L176.401 77.6676C174.309 77.232 172.76 76.4981 171.756 75.4659C170.753 74.4242 170.255 73.108 170.265 71.517C170.255 70.1723 170.62 69.0076 171.359 68.0227C172.107 67.0284 173.144 66.2614 174.47 65.7216C175.805 65.1723 177.344 64.8977 179.086 64.8977C181.643 64.8977 183.655 65.4422 185.123 66.5312C186.6 67.6203 187.514 69.0928 187.864 70.9489ZM192.573 87V65.1818H197.715V87H192.573ZM195.158 62.0852C194.344 62.0852 193.643 61.8153 193.056 61.2756C192.469 60.7263 192.175 60.0682 192.175 59.3011C192.175 58.5246 192.469 57.8665 193.056 57.3267C193.643 56.7775 194.344 56.5028 195.158 56.5028C195.982 56.5028 196.683 56.7775 197.261 57.3267C197.848 57.8665 198.141 58.5246 198.141 59.3011C198.141 60.0682 197.848 60.7263 197.261 61.2756C196.683 61.8153 195.982 62.0852 195.158 62.0852ZM212.52 87.4261C210.342 87.4261 208.472 86.9479 206.909 85.9915C205.356 85.035 204.158 83.714 203.315 82.0284C202.482 80.3333 202.065 78.3826 202.065 76.1761C202.065 73.9602 202.492 72.0047 203.344 70.3097C204.196 68.6051 205.399 67.2794 206.952 66.3324C208.514 65.3759 210.361 64.8977 212.492 64.8977C214.262 64.8977 215.83 65.2244 217.193 65.8778C218.566 66.5218 219.66 67.4356 220.474 68.6193C221.289 69.7936 221.753 71.1667 221.867 72.7386H216.952C216.753 71.6875 216.279 70.8116 215.531 70.1108C214.793 69.4006 213.803 69.0455 212.563 69.0455C211.511 69.0455 210.588 69.3295 209.793 69.8977C208.997 70.4564 208.377 71.2614 207.932 72.3125C207.496 73.3636 207.278 74.6231 207.278 76.0909C207.278 77.5777 207.496 78.8561 207.932 79.9261C208.367 80.9867 208.978 81.8059 209.764 82.3835C210.56 82.9517 211.492 83.2358 212.563 83.2358C213.32 83.2358 213.997 83.0937 214.594 82.8097C215.2 82.5161 215.706 82.0947 216.114 81.5455C216.521 80.9962 216.8 80.3286 216.952 79.5426H221.867C221.743 81.0862 221.289 82.4545 220.503 83.6477C219.717 84.8314 218.647 85.7595 217.293 86.4318C215.938 87.0947 214.348 87.4261 212.52 87.4261Z" fill="#212529"/>
<rect x="980.4" y="54" width="44" height="36" rx="5" fill="#F1F3F5"/>
<path d="M1003.24 80C998.806 80 995.244 76.4375 995.244 72C995.244 67.5938 998.806 64 1003.24 64C1003.74 64.0312 1004.21 64.0625 1004.68 64.1562C1005.02 64.2188 1005.12 64.6562 1004.81 64.8438C1002.84 65.9688 1001.65 68.0312 1001.65 70.2812C1001.65 74.2188 1005.21 77.1875 1009.09 76.4375C1009.43 76.375 1009.68 76.7812 1009.46 77.0625C1007.96 78.9062 1005.71 80 1003.24 80Z" fill="#212529"/>
</svg>
